<?xml version="1.0" encoding="UTF-8"?>
<!-- Generator: Adobe Illustrator 25.3.1, SVG Export Plug-In . SVG Version: 6.00 Build 0)  -->
<svg xmlns="http://www.w3.org/2000/svg" xmlns:xlink="http://www.w3.org/1999/xlink" version="1.1" id="Capa_1" x="0px" y="0px" viewBox="0 0 512 512" style="enable-background:new 0 0 512 512;" xml:space="preserve" width="512" height="512">
<g>
	<g>
		<g>
			<g>
				<path style="fill:#FC09B2;" d="M127.09,279.854c6.013,27.305,9.907,57.473,11.89,79.174c1.237,13.611,1.734,23.892,1.536,28.052      c-0.064,1.31-0.252,1.529-1.575,1.714c-39.637,5.288-82.079,3.276-96.401-34.247c-6.192-16.221-2.351-40.178,13.132-55.581      c2.164-2.185,4.592-4.187,7.232-5.979c17.829-12.036,39.589-13.481,60.688-14.953      C126.068,277.855,126.605,277.619,127.09,279.854z"/>
				<g>
					<path style="fill:#915EFD;" d="M476.844,179.697c-2.307,28.322-34.852,61.656-57.681,78.524       c-22.095,16.329-29.992,15.283-46.271,1.589c-0.99-0.83-2.083-1.775-3.278-2.8c-12.047-10.451-33.571-30.571-38.783-42.506       c-1.649-3.777-1.092-7.895,0.183-11.833c5.655-17.454,43.845-62.032,70.933-74.327c1.545-0.71,3.108-1.349,4.702-1.921       c4.809-1.729,9.845-2.835,15.162-3.036c11.054-0.439,23.693,3.9,31.908,9.204c13.06,8.435,16.592,17.661,17.801,19.198       C471.622,151.905,478.021,165.226,476.844,179.697z"/>
					<path style="fill:#915EFD;" d="M365.63,311.236c-21.678,9.263-37.392-4.502-38.435,0.234c-0.361,1.644,0.965,1.879,4.162,3.404       c5.551,2.638,31.088,13.107,20.559,22.097c-3.762,3.23-10.328,3.565-15.22,2.983c-19.573-2.341-25.965-9.589-27.226-5.9       c-0.541,1.535,1.132,2.027,2.776,2.939c3.664,2.002,10.62,5.42,15.989,9.357c5.337,3.905,9.081,8.315,6.494,12.32       c-3.377,5.218-11.045,5.587-17.207,4.922c-10.623-1.158-16.697-7.145-17.925-4.315c-0.666,1.512,0.619,2.074,1.5,2.534       c9.533,5.073,25.138,12.1,18.853,20.194c-7.388,9.536-32.084,6.707-43.96,4.503c-27.429-5.091-58.35-13.335-82.78-24.893       c-2.749-1.298,2.388-8.869-3.612-54.393c-2.095-15.881-4.833-15.742-2.968-17.803c0.33-0.366,0.66-0.732,0.997-1.085       c12.436-13.614,24.795-23.433,42.76-29.052c0.277-0.098,0.586-0.097,0.875-0.103c0.524,0.012,0.385,0.612,0.152,1.079       c-7.135,14.861-1.665,24.245-9.701,41.734c-2.739,5.955-2.877,11.238,2.051,16.063c4.378,4.275,10.672,5.703,17.542,3.02       c10.096-3.957,20.544-23.618,25.045-33.644c4.202-9.35,3.063-12.735,4.408-11.667c5.374,4.292,9.409,8.355,18.557,12.508       c6.703,3.019,12.844,4.568,19.004,5.023c14.991,1.111,34.68-6.147,47.934-2.291c5.582,1.634,10.099,3.073,13.686,8.287       C373.243,304.072,370.069,309.342,365.63,311.236z"/>
				</g>
				<path style="fill:#FF8EDE;" d="M386.173,273.57c-4.746,8.472-8.528,13.897-15.914,19.479c-0.668,0.509-1.317,0.507-2.039-0.028      c-5.95-4.345-16.56-7.404-27.276-6.039c-24.14,3.066-37.197,7.753-58.888-6.18c-6.524-4.188-10.582-9.472-12.83-9.532      c-0.904-0.028-1.507,0.791-1.863,2.822c-2.171,12.396-12.008,28.95-18.019,36.315c-3.567,4.369-7.539,8.15-13.033,8.904      c-8.053,1.101-15.143-5.462-13.175-12.675c1.121-4.124,5.782-10.401,6.667-25.011c0.546-8.925,1.605-15.353,5.749-23.104      c16.778-31.309,51.012-33.309,91.411-41.661c3.526-0.736-0.271,1.18,12.578,15.192c7.479,8.145,24.644,25.715,37.629,34.786      c3.052,2.112,5.858,3.772,8.268,4.728C386.72,272.081,386.837,272.366,386.173,273.57z"/>
				<g>
					<path style="fill:#4217A6;" d="M411.936,144.266c17.083,27.62,18.89,66.887,6.501,95.937c-0.878,2.054-3.974,1.056-3.503-1.12       c7.015-32.542,5.777-61.7-6.099-93.288C408.09,143.834,410.833,142.491,411.936,144.266z"/>
					<path style="fill:#4217A6;" d="M450.086,157.944c8.784,15.996,7.931,39.617-2.349,55.049c-1.158,1.739-3.875,0.526-3.355-1.497       c4.989-19.425,5.938-30.993,2.44-52.41l-0.002-0.016c-0.156-0.955,0.492-1.856,1.448-2.013       C449.019,156.935,449.738,157.313,450.086,157.944z"/>
				</g>
				<g>
					<path style="fill:#FFFFFF;" d="M185.969,303.746c2.168,13.627,3.888,32.6,3.656,47.875c-0.025,1.842-0.087,3.637-0.167,5.36       c-0.882,17.508-11.515,26.174-45.121,30.99c-0.737,0.087-0.772-0.641-0.73-1.552c0.103-3.224-0.334-13.517-1.675-28.036       c-1.834-20.216-5.376-48.637-11.5-77.624c-0.561-2.604-0.82-3.017,0.538-3.056c12.429-0.341,35.117-0.779,45.943,6.181       C182.558,287.514,184.926,297.125,185.969,303.746z"/>
					<g>
						<path style="fill:#FFFFFF;" d="M96.583,308.459c3.43,0.355,4.811,1.853,4.97,4.975c0.881,17.26-19.961,19.342-24.039,3.619        c-0.482-1.86,0.19-3.403,2.04-4.638C84.041,309.418,91.476,307.929,96.583,308.459z"/>
					</g>
				</g>
				<g style="opacity:0.5;">
					<path style="fill:#FC09B2;" d="M386.173,273.57c-4.746,8.472-8.528,13.897-15.914,19.479c-0.668,0.509-1.317,0.507-2.039-0.028       c-5.95-4.345-16.56-7.404-27.276-6.039c-24.14,3.066-37.197,7.753-58.888-6.18c-6.524-4.188-10.582-9.472-12.83-9.532       c1.352-3.05,4.017-5.374,7.286-6.621c4.66-1.804,9.503-0.568,14.016,1.068c13.582,4.933,18.207,12.867,45.275,5.004       c9.08-2.637,18.175-5.897,27.639-5.928c4.919-0.014,9.57,0.713,13.73,2.045c3.052,2.112,5.858,3.772,8.268,4.728       C386.72,272.081,386.837,272.366,386.173,273.57z"/>
				</g>
				<path style="opacity:0.5;fill:#FFFFFF;" d="M260.976,248.819c-10.217,7.817-16.969,16.982-17.71,32.931l-0.002,0.028      c-0.08,1.717-2.547,1.935-2.927,0.258c-2.085-9.232,0.322-19.902,6.635-27.945c6.034-7.475,14.922-12.318,23.879-15.574      c0.725-0.263,1.526,0.111,1.789,0.835C273.331,241.25,270.647,241.52,260.976,248.819z"/>
				<g style="opacity:0.25;">
					<path style="fill:#000E3F;" d="M334.729,358.67c-3.377,5.218-11.045,5.587-17.207,4.922       c-10.623-1.158-16.697-7.145-17.925-4.315c-0.666,1.512,0.619,2.074,1.5,2.534c9.533,5.073,25.138,12.1,18.853,20.194       c-7.388,9.536-32.084,6.707-43.96,4.503c-27.429-5.091-58.35-13.335-82.78-24.893c-2.749-1.298,2.388-8.869-3.612-54.393       c-2.095-15.881-4.833-15.742-2.968-17.803c0.33-0.366,0.66-0.732,0.997-1.085c10.678,21.482,24,43.145,45.831,52.523       c29.265,12.571,64.24-1.038,94.777,5.492C333.572,350.255,337.316,354.666,334.729,358.67z"/>
					<path style="fill:#000E3F;" d="M476.844,179.697c-2.307,28.322-34.852,61.656-57.681,78.524       c-22.095,16.329-29.992,15.283-46.271,1.589c-0.99-0.83-2.083-1.775-3.278-2.8c-0.348-4.113,0.039-8.216,1.412-12.217       c3.955-11.566,15.056-18.995,25.867-24.666c10.818-5.691,22.536-10.882,29.903-20.635c9.757-12.937,9.379-31.537,2.349-46.132       c-5.125-10.647-13.251-19.445-22.497-26.937c4.809-1.729,9.845-2.835,15.162-3.036c11.054-0.439,23.693,3.9,31.908,9.204       c13.06,8.435,16.592,17.661,17.801,19.198C471.622,151.905,478.021,165.226,476.844,179.697z"/>
					<path style="fill:#000E3F;" d="M138.979,359.028c1.237,13.611,1.734,23.892,1.536,28.052c-0.064,1.31-0.252,1.529-1.575,1.714       c-39.637,5.288-82.079,3.276-96.401-34.247c-6.192-16.221-2.351-40.178,13.132-55.581c1.442,16.868,8.496,33.267,19.964,45.757       c7.684,8.373,17.536,15.159,28.706,17.307c10.64,2.056,21.588-0.228,32.206-2.488       C137.358,359.37,138.169,359.199,138.979,359.028z"/>
				</g>
				<g style="opacity:0.18;">
					<path style="fill:#000E3F;" d="M189.626,351.621c-0.025,1.842-0.087,3.637-0.167,5.36       c-0.882,17.508-11.515,26.174-45.121,30.99c-0.737,0.087-0.772-0.641-0.73-1.552c0.103-3.224-0.334-13.517-1.675-28.036       c9.117-1.941,18.226-3.895,27.354-5.842C175.865,351.13,183.355,350.003,189.626,351.621z"/>
				</g>
			</g>
			<g>
				<path style="fill:#000E3F;" d="M468.761,142.073c-2.81-3.49-6.034-6.623-9.583-9.343c-11.671-8.895-26.658-12.988-41.228-11.656      c-18.067,1.65-32.938,12.326-45.771,24.442c-13.639,12.883-38.608,39.217-44.329,57.253c-1.715,5.409-0.895,8.425-0.808,9.988      c0.077,1.438-0.145,1.104-20.898,5.136c-23.237,4.504-40.002,7.647-52.857,16.857c-18.641,13.374-16.73,20.463-21.811,21.234      c-6.319,0.964-16.514,6.12-20.588,8.653c-15.988,9.923-23.156,19.307-26.122,22.128c-1.636,1.549-0.853-5.771-16.963-9.742      c-4.524-1.111-16.216-2.818-29.927-2.586c-23.651,0.389-53.136,2.325-73.851,13.873c-14.082,7.843-21.909,24.229-21.989,24.574      c-0.82,4.145-7.802,16.504-4.41,35.177c1.508,8.299,4.714,14.664,9.614,21.253c8.147,10.942,18.617,17.972,35.108,21.649      c12.003,2.679,24.159,3.309,36.403,2.747c13.248-0.597,26.521-2.242,39.405-5.437c12.817-3.165,28.589-7.282,32.818-21.603      c1.197-3.998-1.272-2.528,14.573,3.527c24.37,9.334,83.524,27.509,108.322,19.402c7.046-2.311,12.656-8.257,9.758-15.173      c-1.913-4.544-7.051-6.581-6.767-7.526c0.101-0.371,0.46-0.33,0.741-0.284c19.357,2.572,27.916-11.291,14.227-21.375      c-4.808-3.537-4.596-3.329-4.447-3.562c0.415-0.633,11.602,3.273,20.617,0.601c7.37-2.172,12.345-8.435,7.945-14.789      c-4.869-7.041-12.877-9.494-12.593-10.405c0.149-0.443,17.534,3.138,26.922-5.315c4.181-3.75,4.87-8.725,3.221-11.918      c-1.98-3.864-2.18-3.738-1.204-4.488c7.617-5.95,13.133-13.407,16.944-21.212c1.723-3.501,3.535,3.585,21.238-6.512      c26.047-14.851,68.012-57.058,69.499-89.012C480.565,165.778,476.767,152.027,468.761,142.073z M140.516,387.08      c-0.064,1.31-0.252,1.528-1.575,1.714c-39.637,5.288-82.079,3.276-96.401-34.247c-7.069-18.498-1.065-47.085,20.363-61.561      c17.829-12.036,39.589-13.481,60.688-14.953c2.477-0.177,3.013-0.413,3.499,1.821      C136.874,324.261,141.042,376.252,140.516,387.08z M189.458,356.982c-0.882,17.508-11.515,26.174-45.121,30.99      c-0.737,0.087-0.772-0.641-0.73-1.552c0.255-7.719-2.653-55.865-13.176-105.66c-0.561-2.604-0.82-3.017,0.538-3.056      c12.429-0.341,35.117-0.779,45.943,6.181c5.645,3.63,8.013,13.241,9.056,19.863      C188.394,319.019,190.265,340.999,189.458,356.982z M365.63,311.236c-21.678,9.263-37.392-4.502-38.435,0.234      c-0.361,1.644,0.965,1.879,4.162,3.404c5.551,2.638,31.088,13.107,20.559,22.097c-3.762,3.23-10.328,3.565-15.22,2.983      c-19.573-2.341-25.964-9.589-27.226-5.9c-0.541,1.535,1.132,2.027,2.776,2.939c7.303,3.984,27.685,13.623,22.484,21.677      c-3.377,5.218-11.045,5.587-17.207,4.922c-10.623-1.158-16.697-7.145-17.925-4.315c-0.666,1.512,0.619,2.074,1.5,2.534      c9.533,5.073,25.138,12.1,18.853,20.194c-7.388,9.536-32.084,6.706-43.96,4.503c-27.429-5.091-58.35-13.335-82.78-24.893      c-2.749-1.298,2.388-8.869-3.612-54.393c-2.095-15.881-4.833-15.742-2.968-17.803c12.771-14.176,25.31-24.371,43.756-30.137      c0.277-0.098,0.586-0.097,0.875-0.103c0.524,0.012,0.385,0.612,0.152,1.079c-7.135,14.861-1.665,24.245-9.701,41.734      c-2.738,5.955-2.877,11.238,2.051,16.063c4.378,4.275,10.672,5.703,17.542,3.021c10.096-3.957,20.544-23.618,25.045-33.644      c4.202-9.35,3.063-12.735,4.408-11.667c5.374,4.292,9.409,8.355,18.557,12.507c6.703,3.019,12.844,4.568,19.004,5.023      c14.992,1.111,34.68-6.147,47.934-2.291c5.582,1.634,10.099,3.073,13.687,8.287C373.243,304.072,370.069,309.342,365.63,311.236      z M386.173,273.57c-4.746,8.472-8.528,13.897-15.914,19.479c-0.668,0.509-1.317,0.507-2.039-0.028      c-5.95-4.345-16.56-7.404-27.276-6.039c-24.14,3.066-37.197,7.753-58.888-6.18c-9.12-5.85-13.429-13.868-14.693-6.71      c-2.171,12.396-12.008,28.95-18.019,36.315c-3.567,4.369-7.539,8.15-13.033,8.904c-8.053,1.101-15.143-5.462-13.175-12.675      c1.121-4.124,5.782-10.401,6.667-25.011c0.546-8.925,1.605-15.353,5.749-23.104c16.778-31.309,51.012-33.309,91.411-41.661      c3.526-0.736-0.27,1.18,12.578,15.193c9.218,10.049,33.184,34.43,45.898,39.513C386.719,272.081,386.837,272.366,386.173,273.57      z M476.844,179.697c-2.306,28.322-34.851,61.656-57.681,78.525c-22.095,16.329-29.992,15.282-46.271,1.589      c-10.898-9.178-36.326-32.191-42.061-45.305c-1.649-3.777-1.092-7.895,0.183-11.833c5.655-17.454,43.845-62.032,70.933-74.327      c6.218-2.829,12.782-4.686,19.864-4.957c11.054-0.439,23.693,3.901,31.908,9.205c13.06,8.435,16.592,17.661,17.801,19.198      C471.622,151.905,478.021,165.226,476.844,179.697z"/>
				<path style="fill:#000E3F;" d="M156.207,301.274c-4.664,2.223-6.922,8.138-4.614,12.785c2.293,4.617,7.74,6.98,12.799,4.564      c5.019-2.397,6.792-8.019,4.564-12.755C166.839,301.189,160.947,299.014,156.207,301.274z"/>
				<path style="fill:#000E3F;" d="M380.011,180.823c-0.582,0.563-0.597,1.491-0.034,2.073c4.071,4.204,4.927,12.616-0.128,15.954      c-4.393,2.867-10.516,0.293-14.345-3.352c-1.413-1.34-3.422,0.789-2.023,2.123c4.817,4.585,12.398,7.376,17.984,3.674      C391.381,194.751,383.33,177.633,380.011,180.823z"/>
				<path style="fill:#000E3F;" d="M384.386,165.724c-2.583,2.32-2.824,6.982-0.392,9.363c5.964,5.84,14.89-2.962,9.54-8.998      C391.743,164.068,387.358,163.054,384.386,165.724z"/>
				<path style="fill:#000E3F;" d="M348.521,199.075c-2.879,2.771-2.186,7.218-0.3,9.15c5.633,5.774,15.059-2.49,9.667-8.862      C355.689,196.766,351.023,196.668,348.521,199.075z"/>
				<path style="fill:#000E3F;" d="M64.37,310.969c-3.08,0.63-5.447,4.22-4.881,7.403c0.613,3.446,4.78,5.892,8.085,4.799      c2.922-0.966,4.963-4.253,4.37-7.256C71.281,312.561,67.776,310.272,64.37,310.969z"/>
				<path style="fill:#000E3F;" d="M112.275,300.99c-3.401,0.721-5.701,4.219-4.97,7.559c0.655,2.99,3.839,5.188,6.904,4.908      c3.467-0.318,6.311-4.224,5.497-7.628C118.953,302.684,115.35,300.338,112.275,300.99z"/>
			</g>
		</g>
		<g>
			<g>
				<path style="fill:#FF8EDE;" d="M224.493,375.409c-0.362,4.497-1.539,6.817-6.104,7.928c-10.165,2.5-15.093-9.244-11.08-18.894      c2.838-6.812,12.023-8.364,18.05-5.092C229.866,361.798,225.313,365.415,224.493,375.409z"/>
				<path style="fill:#FF8EDE;" d="M248.353,367.274c-2.327,8.241-1.228,11.126-1.4,15.306c-0.212,5.091-6.901,9.778-11.652,9.049      c-3.652-0.566-6.459-3.328-7.293-6.889c-4.351-18.367,7.969-35.394,16.839-28.356      C247.771,358.702,249.362,363.737,248.353,367.274z"/>
				<path style="fill:#FF8EDE;" d="M289.069,367.959c1.971,3.982,2.171,8.814,1.165,13.078      c-2.627,11.185-11.048,13.706-16.491,8.199c-2.42-2.458-1.232-4.168-0.43-7.04c1.426-5.062,1.25-12.286,3.628-15.771      C280.297,361.476,286.603,362.963,289.069,367.959z"/>
				<path style="fill:#FF8EDE;" d="M265.734,390.365c-5.828,8.754-18.087,3.57-15.816-15.531c0.61-5.245,1.867-11.216,5.517-15.267      C264.831,349.166,281.525,366.666,265.734,390.365z"/>
			</g>
			<path style="fill:#000E3F;" d="M277.444,361.781c-2.001,1.12-2.715,3.011-3.261,1.713c-5.163-12.59-17.459-12.068-22.181-5.164     c-1.209,1.768-1.286,1.708-2.2-0.131c-3.832-7.627-12.897-8.399-18.296-2.002c-0.512,0.598-1.998,2.674-2.973,1.772     c-3.793-3.513-9.648-4.111-14.441-2.73c-15.9,4.567-14.035,29.564-0.003,31.321c3.394,0.428,6.801-0.593,9.777-2.188     c1.103-0.584,0.958,0.521,1.298,1.691c2.032,6.934,9.948,10.774,16.584,7.522c2.912-1.42,5.516-5.011,6.368-4.715     c0,0,1.265,2.515,1.616,3.193c2.984,5.757,12.521,8.187,18.608-0.122c1.01-1.367,1.295-2.862,2.831-1.009     c3.36,4.041,9.949,5.785,15.003,2.272C300.604,383.173,292.798,353.129,277.444,361.781z M218.389,383.337     c-10.165,2.5-15.093-9.244-11.08-18.894c2.838-6.812,12.023-8.364,18.05-5.092c4.506,2.448-0.046,6.065-0.867,16.059     C224.13,379.906,222.953,382.226,218.389,383.337z M235.302,391.628c-6.19-0.95-7.761-7.391-8.006-12.72     c-0.579-12.609,8.564-29.717,17.552-22.525c2.923,2.318,4.514,7.354,3.505,10.891c-2.327,8.241-1.228,11.126-1.4,15.306     C246.741,387.67,240.052,392.358,235.302,391.628z M265.734,390.365c-5.828,8.754-18.087,3.57-15.816-15.531     c0.61-5.245,1.867-11.216,5.517-15.267C264.831,349.166,281.525,366.666,265.734,390.365z M290.233,381.038     c-2.627,11.185-11.048,13.706-16.491,8.199c-2.42-2.458-1.232-4.168-0.43-7.04c1.426-5.062,1.25-12.286,3.628-15.771     c3.357-4.95,9.663-3.462,12.129,1.534C291.04,371.941,291.24,376.773,290.233,381.038z"/>
		</g>
	</g>
	<g>
		<g>
			<g>
				<path style="fill:#00D5FE;" d="M106.403,141.254c5.288,7.042,20.16,26.803,21.499,43.961c0.148,1.752,0.123,3.484-0.049,5.148      c-0.055,0.48-0.091,0.944-0.179,1.42c-2.853,17.999-24.73,30.877-24.539,30.725c-2.931,2.425,1.828,10.29-5.849,22.221      c-2.066,3.2-4.565,5.779-7.338,7.735c-3.99,2.738-6.88,3.571-8.617,2.523c-4.634-2.732,3.301-7.484,0.484-19.45      c-10.352,4.493-17.335,6.837-24.896,5.279c-4.494-0.912-9.191-3.252-14.925-7.29c-9.496-6.654-19.07-16.891-28.431-30.349      c-3.337-4.822-8.039-13.949-6.463-25.638c0.795-5.896,3.137-12.431,8.082-19.416c3.487-5.016,8.282-10.23,14.74-15.584      c15.3-12.726,31.642-20.301,46.688-19.088C87.502,124.261,97.756,129.751,106.403,141.254z"/>
				<path style="opacity:0.75;fill:#FFFFFF;" d="M19.636,196.185c-6.167-11.465-3.225-29.792,11.246-41.159      c1.579-1.24,3.513,0.261,2.785,2.15c-0.888,2.305-1.779,3.739-2.595,5.633c-4.953,12.958-6.154,15.866-4.553,36.033l0.023,0.289      c0.088,1.112-0.707,2.188-1.776,2.405C22.888,201.918,20.514,197.824,19.636,196.185z"/>
				<g style="opacity:0.25;">
					<path style="fill:#4217A6;" d="M106.403,141.254c5.288,7.042,20.16,26.803,21.499,43.961c0.148,1.752,0.123,3.484-0.049,5.148       c-0.055,0.48-0.091,0.944-0.179,1.42c-2.853,17.999-24.73,30.877-24.539,30.725c-2.931,2.425,1.828,10.29-5.849,22.221       c-2.066,3.2-4.565,5.779-7.338,7.735c-3.99,2.738-6.88,3.571-8.617,2.523c-4.634-2.732,3.301-7.484,0.484-19.45       c-10.352,4.493-17.335,6.837-24.896,5.279c1.488-6.354,5.502-11.414,11.373-15.117c15.451-9.794,36.612-21.573,38.226-42.109       c1.546-19.328-17.073-27.699-25.906-41.982c-4.627-7.505-5.535-13.386-4.002-18.157       C87.502,124.261,97.756,129.751,106.403,141.254z"/>
				</g>
			</g>
			<path style="fill:#000E3F;" d="M83.027,257.262c-0.989,0-1.866-0.237-2.642-0.704c-3.468-2.045-2.368-5.175-1.399-7.937     c0.885-2.521,2.055-5.852,1.445-10.494c-9.945,4.191-16.608,5.985-23.883,4.487c-4.696-0.953-9.511-3.293-15.609-7.589     c-9.648-6.759-19.366-17.124-28.881-30.801c-3.253-4.704-8.456-14.449-6.773-26.929c0.921-6.853,3.749-13.66,8.401-20.232     c3.751-5.394,8.825-10.761,15.068-15.936c16.762-13.938,33.378-20.671,48.004-19.503c12.07,0.896,22.542,7.129,31.113,18.528     c0,0,0,0,0,0.002l-1.466,1.1l1.516-1.037c5.587,7.443,20.433,27.215,21.812,44.855c0.151,1.807,0.133,3.653-0.054,5.477     l-0.042,0.386c-0.042,0.394-0.086,0.782-0.159,1.178c-2.624,16.57-20.803,29.277-25.204,31.772l0.03,0.036     c-0.452,0.374-0.45,1.972-0.448,3.663c0.004,4.105,0.012,10.307-5.028,18.137c-2.141,3.319-4.774,6.09-7.824,8.241     C87.792,256.167,85.154,257.26,83.027,257.262z M81.815,233.703c0.283,0,0.563,0.066,0.822,0.195     c0.486,0.245,0.838,0.691,0.963,1.22c1.612,6.843-0.052,11.582-1.154,14.716c-1.071,3.05-0.917,3.14-0.183,3.574     c0.804,0.49,2.947,0.085,6.648-2.455c2.645-1.864,4.951-4.298,6.835-7.219c4.453-6.918,4.447-12.251,4.441-16.143     c-0.002-2.694-0.004-5.018,1.781-6.494c0.102-0.086,0.211-0.157,0.326-0.217c0.846-0.499,20.92-12.673,23.57-29.382     c0.064-0.348,0.093-0.647,0.125-0.947l0.044-0.398c0.161-1.576,0.177-3.193,0.044-4.783     c-1.297-16.584-15.677-35.738-21.089-42.948l1.417-1.166l-1.466,1.102c-7.907-10.516-17.484-16.262-28.463-17.076     c-13.715-1.118-29.37,5.352-45.38,18.67c-5.991,4.964-10.838,10.084-14.408,15.22c-4.316,6.095-6.926,12.354-7.77,18.614     c-1.516,11.254,3.205,20.086,6.154,24.35c9.264,13.317,18.678,23.375,27.976,29.89c5.589,3.938,10.112,6.158,14.235,6.996     c6.874,1.411,13.148-0.539,23.803-5.163C81.318,233.755,81.566,233.703,81.815,233.703z"/>
		</g>
		<g>
			<g>
				<g>
					<path style="fill:#91D728;" d="M77.402,222.571c-1.904,0-3.005-1.455-3.89-2.624c-0.714-0.945-1.22-1.564-1.721-1.564       c-0.181,0-0.414,0.06-0.676,0.173c-2.119,0.842-3.954,1.238-5.665,1.238c-1.663,0-3.188-0.372-4.662-1.136       c-2.248-1.138-4.119-3.05-6.405-5.764c-1.262-1.488-2.213-2.756-2.008-4.344c0.243-1.878,1.994-3.1,4.891-5.123       c0.366-0.255,0.714-0.549,1.055-0.838c1.05-0.883,2.24-1.884,3.784-1.884c1.146,0,2.189,0.547,3.1,1.63       c0.231,0.271,0.458,0.517,0.684,0.764c0.279,0.305,0.557,0.607,0.85,0.957c0.221,0.261,0.659,0.704,1.082,0.704       c0.458,0,1.035-0.495,1.341-1.154c0.237-0.509,0.199-0.873,0.143-0.939c-1.636-1.952-4.31-2.352-7.822-2.352       c-0.987,0-2.004,0.032-3.038,0.064c-1.11,0.034-2.24,0.068-3.375,0.068c-5.137,0-10.971-0.697-15.311-5.876       c-3.49-4.143-3.602-9.789-0.36-15.279c-0.919-1.078-1.701-1.813-2.342-2.412c-1.042-0.977-1.944-1.823-1.906-3.166       c0.044-1.534,1.247-2.541,3.432-4.368l0,0c-0.006,0,4.041-3.826,6.425-3.826c0.344,0,0.672,0.066,0.971,0.193       c0.243,0.101,0.46,0.257,0.637,0.45c1.415,1.548,2.332,2.71,3.001,3.558c0.165,0.209,0.342,0.432,0.497,0.625       c1.475-0.836,3.178-1.251,5.108-1.251c2.823,0,5.072,0.879,5.907,1.257c2.567,1.15,3.953,2.799,5.557,4.71l0.319,0.378       c1.088,1.293,1.052,2.501,0.832,3.287c-0.237,0.844-0.79,1.606-1.735,2.402c-1.375,1.156-2.057,1.793-2.62,2.32       c-0.444,0.416-0.822,0.766-1.373,1.228c-1.337,1.122-2.589,1.67-3.824,1.67c-1.733,0-2.861-1.045-3.685-1.809       c-0.255-0.235-0.633-0.585-0.81-0.663c-0.008,0.022-0.159,0.089-0.422,0.309c-0.221,0.185-0.468,0.666-0.515,1.23       c-0.034,0.408,0.046,0.77,0.215,0.969c0.842,1.003,2.439,1.486,4.883,1.486c1.427,0,2.893-0.163,4.188-0.308l1.069-0.116       c1.013-0.099,2.02-0.181,3.024-0.205c0.3-0.01,0.607-0.014,0.911-0.014c6.301,0,10.987,1.926,14.328,5.886       c2.559,3.06,3.404,6.632,2.587,10.926c-0.008,0.131-0.675,2.704-1.427,4.533c0.87,1.052,2.243,2.722,2.776,3.416l0.008-0.008       c0.848,1.007,0.957,2.002,0.899,2.66c-0.099,1.144-0.772,2.245-2,3.273c-0.147,0.123-1.212,1.046-2.191,1.894       c-0.947,0.82-1.441,1.247-1.735,1.484l0.008,0.01C79.378,222.155,78.399,222.571,77.402,222.571L77.402,222.571z"/>
					<path style="opacity:0.5;fill:#FFFFFF;" d="M49.158,189.42l0.236,0.362c2.725,2.832,2.299,2.399,2.381,2.497l0.13,0.153       c0.677,0.798-0.043,2.003-1.072,1.784c-6.539-1.433-8.752-7.247-6.061-12.271c0.974-1.753,3.619-5.034,4.725-3.361       c0.19,0.288,0.218,0.635,0.106,0.936C48.368,182.853,46.761,186.453,49.158,189.42z"/>
					<path style="opacity:0.25;fill:#000E3F;" d="M80.069,194.29c2.041,2.439,2.956,5.367,2.187,9.401       c-0.074,0.735-1.48,4.92-1.771,5.16c0.092,0.105,3.515,4.283,3.526,4.305c0.764,0.908,0.721,2.011-0.876,3.348       c-0.099,0.077-3.909,3.385-3.921,3.391c-4.134,3.482-4.076-5.086-8.83-3.022c-3.742,1.482-6.43,1.361-8.751,0.155       c2.38-5.119,9.181-6.007,12.518-10.354c4.739-6.163-1.627-14.77-7.875-17.605C71.462,188.927,76.46,190.012,80.069,194.29z"/>
				</g>
				<g>
					<path style="fill:#000E3F;" d="M45.007,167.354c0.096,0,0.182,0.015,0.256,0.046c3.227,3.53,3.849,5.076,4.661,5.076       c0.193,0,0.398-0.088,0.652-0.258c1.383-0.943,3.035-1.289,4.647-1.289c1.967,0,3.872,0.516,5.151,1.094       c2.338,1.047,3.512,2.561,5.231,4.597c0.966,1.151,0.506,2.104-0.683,3.103c-2.444,2.057-2.754,2.511-3.992,3.549       c-1.08,0.907-1.933,1.24-2.644,1.24c-1.943,0-2.837-2.473-4.462-2.473c-0.469,0-1.001,0.207-1.635,0.741       c-1.19,0.999-1.672,3.427-0.52,4.787c1.424,1.692,3.836,2.135,6.283,2.135c1.954,0,3.929-0.282,5.44-0.435       c0.966-0.094,1.926-0.173,2.887-0.196c0.289-0.008,0.578-0.012,0.866-0.012c4.872,0,9.518,1.194,12.926,5.232       c2.041,2.439,2.956,5.367,2.187,9.401c-0.074,0.735-1.479,4.921-1.771,5.16c0.092,0.104,3.515,4.283,3.526,4.305       c0.764,0.908,0.722,2.012-0.875,3.349c-0.099,0.077-3.909,3.385-3.921,3.391c-0.713,0.601-1.301,0.842-1.811,0.842       c-2.121,0-2.883-4.189-5.613-4.189c-0.419,0-0.884,0.098-1.407,0.325c-1.882,0.746-3.499,1.085-4.936,1.085       c-1.418,0-2.662-0.331-3.815-0.93c-2.063-1.046-3.855-2.952-5.848-5.318c-2.593-3.056-2.241-3.449,2.53-6.781       c1.361-0.95,2.538-2.395,3.789-2.394c0.544,0,1.103,0.273,1.697,0.979c0.524,0.617,1.005,1.09,1.534,1.718       c0.821,0.972,1.682,1.359,2.485,1.359c2.403,0,4.272-3.469,2.885-5.112c-2.138-2.553-5.454-3.002-9.221-3.002       c-2.045,0-4.222,0.132-6.417,0.132c-5.009,0-10.107-0.69-13.902-5.22c-3.483-4.135-2.632-9.551,0.376-14.064       c0.261-0.498-0.167-0.532-0.505-0.94c-4.105-4.949-5.998-3.684-1.273-7.637C39.959,170.551,43.593,167.354,45.007,167.354        M45.008,163.686L45.008,163.686c-2.922,0-6.793,3.483-7.677,4.318c-2.295,1.92-3.946,3.327-4.011,5.659       c-0.061,2.168,1.351,3.491,2.485,4.553c0.397,0.373,0.854,0.802,1.366,1.338c-2.907,5.767-2.514,11.802,1.191,16.2       c4.817,5.749,11.148,6.525,16.707,6.525c0.214,0,0.429-0.001,0.643-0.004c-2.915,2.043-4.826,3.501-5.154,6.038       c-0.326,2.518,1.268,4.397,2.432,5.77c2.423,2.878,4.442,4.928,6.987,6.217c1.682,0.874,3.536,1.327,5.473,1.327       c1.886,0,3.873-0.412,6.068-1.258c0.176,0.211,0.379,0.479,0.534,0.684c0.948,1.254,2.535,3.352,5.354,3.352       c1.426,0,2.83-0.573,4.173-1.705l-0.005-0.005c0.282-0.233,0.718-0.611,1.481-1.271c1.004-0.871,2.208-1.914,2.416-2.089       c0.007-0.006,0.014-0.012,0.021-0.018c1.615-1.352,2.506-2.872,2.65-4.519c0.088-1.005-0.071-2.514-1.323-4.002l-0.01,0.009       c-0.518-0.693-1.34-1.704-2.065-2.582c0.561-1.572,0.947-3.182,1.095-3.849l0.021,0.004c0.928-4.869-0.045-8.939-2.977-12.442       c-3.721-4.408-8.865-6.546-15.739-6.546c-0.321,0-0.644,0.005-0.967,0.014c-0.776,0.019-1.547,0.07-2.256,0.131       c0.281-0.251,0.534-0.487,0.813-0.747c0.567-0.529,1.209-1.13,2.552-2.26c3.492-2.933,2.792-6.286,1.13-8.266l-0.325-0.385       c-1.676-1.995-3.26-3.878-6.217-5.202c-1.984-0.896-4.412-1.414-6.649-1.414c-1.639,0-3.185,0.277-4.573,0.81       c-0.631-0.792-1.498-1.852-2.68-3.145c-0.355-0.388-0.789-0.695-1.272-0.901C46.169,163.8,45.601,163.686,45.008,163.686       L45.008,163.686z"/>
				</g>
			</g>
			<g>
				<g>
					<path style="fill:#915EFD;" d="M98.716,201.569c-1.49,0-2.117-1.198-3.981-4.755c-0.601-1.142-1.22-2.324-1.687-3.06       c-0.263-0.41-0.368-0.937-0.263-1.411c0.105-0.475,0.378-0.917,0.788-1.18c0.911-0.579,2.026-1.325,3.188-2.103       c1.303-0.873,2.664-1.785,3.87-2.551c0.297-0.189,0.637-0.287,0.983-0.287c0.141,0,0.283,0.018,0.422,0.05       c0.482,0.113,0.897,0.418,1.15,0.842l1.261,2.127c0.975,1.647,2.004,3.392,3.001,4.96c0.543,0.854,0.291,1.986-0.563,2.531       l-7.129,4.537C99.46,201.456,99.064,201.569,98.716,201.569z M89.543,186.185c-0.135,0-0.271-0.016-0.404-0.046       c-0.483-0.109-0.901-0.408-1.16-0.832c-2.457-4.011-5.082-8.015-7.621-11.887c-4.053-6.18-8.243-12.569-12.024-19.386       c-0.468-0.842-0.201-1.904,0.607-2.427c0.388-0.253,6.809-4.469,7.211-4.752c0.314-0.223,0.69-0.34,1.071-0.34       c0.123,0,0.245,0.012,0.366,0.036c0.495,0.104,0.935,0.402,1.2,0.834l1.072,1.753c5.995,9.803,12.193,19.939,18.594,29.026       c0.553,0.79,0.404,1.872-0.344,2.479c-1.608,1.307-5.002,3.572-7.567,5.243C90.244,186.081,89.895,186.185,89.543,186.185z"/>
				</g>
				<g>
					<path style="fill:#000E3F;" d="M77.225,148.342c6.182,10.105,12.903,21.185,19.731,30.879c-1.703,1.383-5.562,3.925-7.413,5.13       c-6.369-10.399-13.479-20.16-19.606-31.206C70.029,153.087,76.941,148.551,77.225,148.342 M101.612,188.057       c1.32,2.201,2.838,4.849,4.288,7.127l-7.13,4.537c-0.017,0.011-0.035,0.016-0.055,0.016c-0.615,0-2.788-4.872-4.122-6.968       l-0.036-0.058C96.493,191.479,99.334,189.506,101.612,188.057 M77.225,144.675c-0.758,0-1.504,0.235-2.131,0.683       c-0.564,0.388-6.767,4.461-7.136,4.7c-1.621,1.048-2.164,3.179-1.228,4.866c3.813,6.874,8.022,13.292,12.092,19.498       c2.532,3.861,5.15,7.854,7.594,11.844c0.517,0.845,1.354,1.445,2.32,1.662c0.268,0.061,0.538,0.09,0.808,0.09       c0.704,0,1.401-0.203,2.001-0.594c2.595-1.689,6.042-3.989,7.724-5.355c1.496-1.216,1.797-3.382,0.686-4.959       c-6.375-9.05-12.564-19.173-18.551-28.963l-1.05-1.718c-0.536-0.876-1.416-1.487-2.424-1.685       C77.695,144.697,77.46,144.675,77.225,144.675L77.225,144.675z M101.612,184.39c-0.691,0-1.375,0.195-1.969,0.573       c-1.207,0.768-2.57,1.681-3.876,2.555c-1.158,0.776-2.269,1.521-3.179,2.099c-1.695,1.078-2.207,3.321-1.147,5.028       c0.007,0.012,0.051,0.081,0.058,0.092c0.427,0.671,1.028,1.818,1.609,2.926c2.004,3.822,3.009,5.74,5.607,5.74       c0.697,0,1.435-0.214,2.023-0.588l7.131-4.538c0.821-0.522,1.4-1.349,1.612-2.298c0.211-0.949,0.036-1.944-0.486-2.765       c-0.972-1.527-1.983-3.238-2.96-4.894c-0.44-0.744-0.868-1.468-1.277-2.151c-0.508-0.849-1.339-1.455-2.302-1.683       C102.176,184.422,101.893,184.39,101.612,184.39L101.612,184.39z"/>
				</g>
			</g>
		</g>
	</g>
	<g>
		<path style="fill:#000E3F;" d="M173.41,221.988c0.246,0.26,0.495,0.519,0.688,0.779c3.044,4.099,1.924,10.423-2.315,13.324    c1.108,0.984,1.545,1.669,7.047,7.118l0.026,0.03c-0.027,0.027-0.031,0.083-0.06,0.111c-0.79,1.309-3.263,3.626-4.697,4.724    c-5.588-5.366-12.866-13.474-19.225-19.648c3.537-5.822,11.894-12.671,18.506-6.466L173.41,221.988z M163.004,228.317    c-0.03,0.027-0.059,0.054-0.06,0.112c1.41,1.298,2.923,3.277,4.398,4.07l0.089-0.083c1.127-1.245,2.961-2.673,2.999-4.477    c-0.195-1.473-1.664-2.717-3.25-2.355C165.484,225.715,163.936,226.813,163.004,228.317z"/>
		<path style="fill:#000E3F;" d="M198.11,227.105l0.024,0.03c-1.034,1.26-2.681,2.456-4.239,3.265l-0.029,0.027    c-1.58-0.924-4.027-3.094-5.57-3.843c-1.177,0.706-1.014,0.779-1.937,1.537c0.505,1.751,2.461,4.325,2.863,6.263    c-0.03,0.027-0.036,0.083-0.068,0.108c-0.263,0.37-1.56,1.176-4.344,3.508c-0.032,0.025-0.032,0.025-0.086,0.02    c-0.435-1.036-7.797-13.103-12.922-25.403c0.509-0.574,1.154-0.793,3.665-3.264c1.688,1.3,9.295,7.187,11.48,8.849L198.11,227.105    z M183.159,224.656c0.737-0.552,1.512-1.238,2.282-1.871C175.489,213.152,178.841,217.624,183.159,224.656z"/>
		<path style="fill:#000E3F;" d="M215.015,215.351c-1.552,1.057-3.359,2.58-5.423,3.796l-0.032,0.023    c-2.228-1.425-6.771-4.119-10.222-5.143l-0.132-0.056c1.083,2.157,4.401,6.314,5.646,7.927c-1.055,1.638-5.124,3.88-5.484,4.271    c0.262-0.179-14.106-20.885-15.94-22.868c2.223-2.048,4.905-4.553,8.351-6.37c5.38-3.287,12.63,0.118,13.022,6.563    c0.252,2.144-0.311,4.217-2.327,5.788l-0.134,0.089l-0.031,0.021l0.022,0.034c4.068,2.002,8.861,3.223,12.652,5.948    L215.015,215.351z M194.313,208.572l0.034-0.022c1.087-0.597,2.384-1.385,3.326-2.269c1.431-1.508-0.233-4.235-2.105-4.359    c-1.563-0.237-3.063,1.03-4.186,2.711C192.246,205.687,193.474,207.696,194.313,208.572z"/>
		<path style="fill:#000E3F;" d="M219.306,188.074c-0.96,0.33-2.094,1.082-4.207,2.449l-0.068,0.04l-0.035,0.02    c0.02,0.033,0.006,0.088,0.028,0.123c0.243,0.736,1.744,3.231,10.79,18.136l0.022,0.035l0.019,0.035    c-1.528,1.259-4.02,2.294-5.515,3.533c-0.34-0.354-2.9-5.697-10.938-18.234l-0.057-0.014c-1.388,0.07-3.726,1.847-4.378,1.994    c-0.372-0.244-2.197-3.059-3.291-5.331c-0.017-0.036-0.052-0.015-0.074-0.05c4.67-2.765,9.707-5.929,14.728-8.161    C217.318,184.107,218.585,186.279,219.306,188.074z"/>
		<path style="fill:#000E3F;" d="M242.155,200.664c-3.329-2.756-6.62-5.264-9.232-7.75l-0.89-0.896    c-0.446-0.446-0.888-0.893-0.995-0.84c-0.146,0.071,2.264,5.198,4.25,9.198c0.549,1.108,1.063,2.143,1.504,2.948    c-0.462,0.408-0.946,0.693-1.479,0.958c-1.145,0.567-2.43,0.937-3.539,1.487l-1.239-2.5c-2.25-4.538-4.29-8.377-6.506-12.843    c-1.631-3.286-3.174-6.571-4.431-9.733c0.413-0.337,0.965-0.656,1.537-0.941c0.608-0.3,3.036-1.328,3.142-1.113    c1.549,1.413,1.994,1.504,3.846,3.079c0.622,0.538,5.855,4.53,5.958,4.477c0.091-0.177-0.314-1.267-0.721-2.088    c-0.94-1.893-1.828-3.412-2.678-5.126c-0.498-1.001-0.956-2.019-1.505-3.215c0.752-0.55,1.572-1.048,2.465-1.491    c0.893-0.443,1.713-0.761,2.462-0.955l5.708,11.502c1.03,1.983,2.056,4.055,3.069,6.092c0.687,1.393,1.274,2.66,1.928,3.983    c0.481,0.963,0.975,1.875,1.455,2.84l0.357,0.714c-0.092,0.089-0.269,0.355-1.092,0.764    C244.566,199.689,243.119,200.185,242.155,200.664z"/>
		<path style="fill:#000E3F;" d="M262.226,186.144c0.765,1.539,1.499,3.308,1.701,4.953c-5.03,2.033-10.227,4.609-15.151,6.168    c-3.531-8.557-7.367-16.598-10.377-25.241c5.593-2.655,15.083-6.744,15.177-6.524c0.974,1.626,1.446,3.505,2.159,5.238    l0.015,0.036c-2.842,1.995-6.353,2.795-9.48,4.431l-0.107,0.046l-0.023,0.052c0.629,1.424,0.936,3.111,1.816,4.3l0.053,0.022    c1.522-0.498,3.055-1.174,4.58-1.761l0.016,0.036c0.945,1.553,1.406,3.304,2.192,5.096c-1.346,1.029-3.948,1.629-4.296,2.248    c0.337,1.543,1.304,3.475,1.903,4.61l0.051,0.021c3.245-1.339,6.428-2.307,9.738-3.804L262.226,186.144z"/>
		<path style="fill:#000E3F;" d="M284.367,184.29c-1.783,0.576-3.95,1.53-6.276,2.116l-0.039,0.012    c-1.736-1.995-5.337-5.861-8.359-7.816l-0.113-0.091c0.432,2.376,2.446,7.301,3.19,9.199c-1.478,1.273-6.015,2.282-6.468,2.555    c0.301-0.096-7.658-24.02-8.86-26.44c2.708-1.339,5.994-2.99,9.807-3.764c6.095-1.64,12.092,3.672,10.651,9.967    c-0.355,2.129-1.482,3.962-3.862,4.902l-0.154,0.049l-0.039,0.012l0.012,0.037c3.346,3.069,7.602,5.589,10.47,9.273    L284.367,184.29z M266.405,171.95l0.036-0.01c1.217-0.269,2.684-0.661,3.833-1.243c1.801-1.044,0.968-4.129-0.792-4.775    c-1.431-0.669-3.23,0.124-4.779,1.422C265.234,168.598,265.846,170.874,266.405,171.95z"/>
		<path style="fill:#000E3F;" d="M298.438,161.599c-1.75,0.744-3.887,1.416-5.832,1.345c-0.052-2.982-5.349-2.831-5.082,0.182    c-0.033,0.378,0.126,0.709,0.247,1.048c0.725,1.141,1.798,1.173,2.922,1.069c2.831-0.343,5.642,0.627,7.682,2.48    c2.381,1.896,3.211,5.226,2.607,8.198c-0.487,3.478-3.224,5.604-6.431,6.245c-4.568,0.962-10.193-0.777-11.052-5.781l-0.03-0.117    l-0.026-0.116c1.761-0.706,4.195-0.997,5.931-1.45c0.976,3.252,6.662,1.984,5.185-1.479c-0.901-2.41-4.05-2.031-6.328-1.941    c-1.092,0.053-2.066-0.248-2.952-0.694c-5.853-3.406-5.163-11.033-0.684-14.271c2.276-1.647,5.965-2.156,8.718-1.622    c2.788,0.692,4.978,2.836,5.165,6.893L298.438,161.599z"/>
		<path style="fill:#000E3F;" d="M305.485,179.654c-0.353,0.059-0.397-3.169-0.634-4.625l-0.009-0.04    c1.174-0.719,3.254-0.615,4.789-0.869c0.202,1.464,0.407,3.208,0.659,4.745l-0.276,0.045c-0.631,0.103-0.91,0.109-1.502,0.205    l-0.08,0.014L305.485,179.654z M300.949,152.059c1.354-0.343,3.297-1.067,4.83-0.875c0.986,6.751,2.04,14.139,3.464,20.817    c-1.352,0.385-3.518,0.74-5.047,1.033l-0.039,0.007c-1.023-6.948-2.582-13.726-3.328-20.96L300.949,152.059z"/>
	</g>
	<g>
		<g>
			<path style="fill:#FD8A02;" d="M403.518,75.293c1.016-1.06,1.691-1.839,2.442-2.536c2.496-2.315,5.403-2.677,8.508-1.146     c2.493,1.23,4.267,3.238,5.939,5.368c0.71,0.905,1.359,1.876,2.174,2.675c2.303,2.26,5.329,1.975,7.245-0.639     c0.921-1.256,1.428-2.718,1.925-4.178c0.642-1.888,1.124-1.923,2.046-1.845c1.101,0.095,1.789,1.141,1.602,2.655     c-0.422,3.397-1.507,6.576-4.54,8.508c-4.494,2.864-9.707,1.795-12.944-2.592c-1.306-1.77-2.664-3.461-4.362-4.842     c-2.04-1.66-3.11-1.59-4.992,0.263c-0.912,0.898-1.704,1.918-2.591,2.844c-1.541,1.609-3.347,2.84-5.57,3.217     c-3.36,0.569-6.103-0.608-8.018-3.401c-1.318-1.923-2.798-3.672-4.542-5.201c-2.03-1.782-3.029-1.73-4.753,0.439     c-1.112,1.399-2.062,2.935-3,4.463c-0.577,0.94-1.338,1.522-2.383,1.786c-1.119,0.283-2.103-0.409-2.164-1.527     c-0.05-0.913,0.047-1.826,0.488-2.62c1.244-2.239,2.445-4.529,4.301-6.342c3.109-3.04,6.581-3.175,10.002-0.524     c1.842,1.427,3.355,3.154,4.79,4.963c0.238,0.3,0.398,0.66,0.624,0.97c2.328,3.182,3.978,3.27,6.791,0.356     C402.982,75.944,403.386,75.443,403.518,75.293z"/>
			<path style="fill:#FD8A02;" d="M73.729,432.644c1.047-1.029,1.745-1.788,2.517-2.462c2.564-2.239,5.481-2.514,8.538-0.891     c2.455,1.304,4.168,3.364,5.776,5.544c0.683,0.925,1.302,1.915,2.093,2.739c2.234,2.328,5.268,2.134,7.26-0.421     c0.958-1.228,1.509-2.674,2.049-4.119c0.698-1.868,1.181-1.889,2.1-1.783c1.098,0.128,1.754,1.194,1.522,2.701     c-0.523,3.383-1.703,6.527-4.793,8.368c-4.577,2.728-9.756,1.504-12.86-2.978c-1.252-1.808-2.559-3.539-4.215-4.97     c-1.989-1.72-3.06-1.683-4.997,0.113c-0.939,0.871-1.761,1.866-2.675,2.766c-1.588,1.562-3.43,2.739-5.664,3.049     c-3.375,0.468-6.081-0.791-7.912-3.64c-1.26-1.962-2.687-3.755-4.384-5.335c-1.976-1.842-2.976-1.82-4.764,0.296     c-1.154,1.366-2.15,2.872-3.132,4.371c-0.605,0.922-1.383,1.481-2.435,1.714c-1.126,0.249-2.09-0.472-2.118-1.592     c-0.022-0.914,0.102-1.824,0.566-2.604c1.311-2.202,2.58-4.454,4.489-6.211c3.199-2.945,6.673-2.977,10.014-0.225     c1.798,1.481,3.259,3.253,4.639,5.104c0.229,0.307,0.378,0.672,0.595,0.989c2.231,3.251,3.879,3.388,6.777,0.56     C73.173,433.279,73.592,432.79,73.729,432.644z"/>
			<path style="fill:#FD8A02;" d="M496.532,253.291c-0.8-1.231-1.404-2.066-1.911-2.957c-1.684-2.959-1.373-5.872,0.827-8.545     c1.766-2.147,4.126-3.415,6.582-4.557c1.043-0.485,2.137-0.895,3.102-1.506c2.727-1.726,3.139-4.738,1.033-7.199     c-1.013-1.183-2.32-2.012-3.628-2.828c-1.692-1.056-1.616-1.533-1.329-2.412c0.344-1.051,1.52-1.482,2.95-0.953     c3.211,1.186,6.058,2.969,7.246,6.363c1.761,5.028-0.469,9.86-5.479,12.01c-2.021,0.867-3.977,1.803-5.71,3.141     c-2.081,1.607-2.258,2.664-0.884,4.919c0.667,1.093,1.479,2.097,2.178,3.172c1.215,1.867,2.001,3.907,1.86,6.157     c-0.213,3.401-1.986,5.802-5.142,7.03c-2.174,0.844-4.214,1.886-6.101,3.234c-2.198,1.57-2.376,2.554-0.658,4.727     c1.109,1.402,2.387,2.678,3.66,3.94c0.783,0.776,1.176,1.65,1.195,2.728c0.02,1.154-0.878,1.955-1.982,1.759     c-0.901-0.16-1.767-0.463-2.439-1.073c-1.896-1.723-3.851-3.415-5.193-5.635c-2.249-3.721-1.588-7.132,1.773-9.858     c1.809-1.467,3.837-2.546,5.926-3.53c0.346-0.163,0.734-0.236,1.087-0.386c3.63-1.539,4.092-3.126,1.898-6.53     C497.043,253.961,496.648,253.454,496.532,253.291z"/>
			<path style="fill:#FD8A02;" d="M394.096,371.595c0.332,1.43,0.615,2.421,0.787,3.432c0.572,3.356-0.714,5.988-3.694,7.749     c-2.393,1.415-5.044,1.801-7.743,2.036c-1.146,0.099-2.313,0.112-3.429,0.357c-3.152,0.691-4.568,3.381-3.428,6.414     c0.548,1.458,1.494,2.683,2.445,3.897c1.229,1.57,0.996,1.993,0.425,2.721c-0.682,0.871-1.934,0.874-3.098-0.111     c-2.613-2.211-4.68-4.859-4.639-8.454c0.061-5.328,3.807-9.108,9.25-9.418c2.196-0.125,4.354-0.337,6.439-1.003     c2.505-0.8,3.032-1.733,2.51-4.322c-0.253-1.255-0.674-2.476-0.964-3.725c-0.504-2.17-0.547-4.356,0.354-6.422     c1.362-3.124,3.847-4.776,7.233-4.852c2.331-0.052,4.605-0.334,6.838-0.957c2.602-0.725,3.105-1.589,2.233-4.218     c-0.563-1.697-1.329-3.332-2.095-4.953c-0.471-0.997-0.542-1.952-0.192-2.971c0.375-1.091,1.493-1.537,2.463-0.977     c0.792,0.458,1.503,1.038,1.926,1.842c1.194,2.267,2.454,4.524,2.957,7.069c0.844,4.265-0.942,7.245-5.032,8.66     c-2.202,0.761-4.476,1.083-6.775,1.295c-0.381,0.035-0.77-0.028-1.154-0.008c-3.937,0.208-4.914,1.541-4.013,5.49     C393.844,370.79,394.042,371.402,394.096,371.595z"/>
			<path style="fill:#FD8A02;" d="M185.297,132.829c-0.026-1.468-0.095-2.496-0.053-3.52c0.141-3.401,1.948-5.707,5.23-6.807     c2.636-0.884,5.309-0.709,7.997-0.375c1.141,0.142,2.286,0.373,3.428,0.367c3.227-0.019,5.173-2.353,4.691-5.557     c-0.232-1.54-0.901-2.935-1.578-4.321c-0.875-1.792-0.557-2.157,0.152-2.75c0.849-0.709,2.074-0.451,3.007,0.756     c2.094,2.707,3.563,5.728,2.773,9.236c-1.172,5.198-5.624,8.113-11.012,7.28c-2.174-0.336-4.328-0.579-6.507-0.363     c-2.617,0.259-3.327,1.062-3.357,3.703c-0.015,1.28,0.142,2.562,0.165,3.844c0.04,2.227-0.374,4.374-1.686,6.207     c-1.983,2.771-4.759,3.868-8.086,3.235c-2.291-0.436-4.574-0.634-6.888-0.491c-2.696,0.166-3.368,0.906-3.064,3.66     c0.197,1.777,0.605,3.536,1.016,5.28c0.252,1.074,0.123,2.023-0.433,2.947c-0.594,0.989-1.781,1.192-2.612,0.441     c-0.679-0.613-1.254-1.329-1.5-2.203c-0.695-2.466-1.456-4.936-1.417-7.531c0.065-4.348,2.433-6.89,6.729-7.42     c2.312-0.285,4.602-0.125,6.896,0.147c0.38,0.045,0.747,0.188,1.126,0.249c3.894,0.619,5.128-0.482,5.071-4.532     C185.376,133.669,185.31,133.029,185.297,132.829z"/>
		</g>
		<g>
			<path style="fill:#915EFD;" d="M0.276,300.771c1.14,4.208,5.475,6.696,9.683,5.556c4.208-1.139,6.696-5.475,5.556-9.683     c-1.14-4.208-5.475-6.696-9.683-5.556C1.624,292.228-0.863,296.563,0.276,300.771z"/>
			<path style="fill:#915EFD;" d="M297.86,104.037c1.139,4.208,5.475,6.696,9.683,5.556c4.208-1.14,6.696-5.475,5.556-9.683     c-1.14-4.208-5.475-6.696-9.683-5.556C299.208,95.493,296.72,99.828,297.86,104.037z"/>
			<path style="fill:#915EFD;" d="M192.25,429.807c1.139,4.208,5.475,6.696,9.683,5.556c4.208-1.139,6.696-5.475,5.556-9.683     c-1.14-4.208-5.475-6.696-9.683-5.556C193.598,421.263,191.111,425.599,192.25,429.807z"/>
			<path style="fill:#915EFD;" d="M456.218,335.99c1.14,4.208,5.475,6.696,9.683,5.556c4.208-1.14,6.696-5.475,5.556-9.683     c-1.14-4.208-5.475-6.696-9.683-5.556C457.566,327.447,455.078,331.782,456.218,335.99z"/>
			<path style="fill:#915EFD;" d="M490.487,118.001c1.139,4.208,5.475,6.696,9.683,5.556c4.208-1.14,6.696-5.475,5.556-9.683     c-1.14-4.208-5.475-6.696-9.683-5.556C491.835,109.457,489.347,113.793,490.487,118.001z"/>
		</g>
	</g>
</g>















</svg>
